<svg height="480pt" viewBox="0 -64 480.05228 480" width="480pt" xmlns="http://www.w3.org/2000/svg"><path d="m392.007812 183.972656c-1.363281 0-2.722656 0-4 .082032 2.636719-10.492188 3.980469-21.265626 4-32.082032 0-70.691406-57.308593-128-128-128-70.695312 0-128 57.308594-128 128 0 1.839844 0 3.683594.160157 5.523438-40.144531-14.21875-84.859375-.355469-109.921875 34.078125-21.148438 29.230469-24.140625 67.847656-7.742188 99.988281 16.398438 32.136719 49.421875 52.382812 85.503906 52.410156h288c44.179688 0 80-35.816406 80-80 0-44.179687-35.820312-80-80-80zm0 0" fill="#9bc9ff"/><path d="m397.863281 176.167969c1.417969-7.988281 2.136719-16.082031 2.144531-24.195313.027344-46.226562-23.445312-89.296875-62.304687-114.335937-38.859375-25.039063-87.78125-28.609375-129.863281-9.476563-47.890625-38.433594-116.339844-37.382812-163.03125 2.496094-46.6875 39.878906-58.429688 107.320312-27.960938 160.628906-20.789062 31.972656-22.410156 72.753906-4.226562 106.277344 18.179687 33.519531 53.25 54.398438 91.386718 54.410156h288c47.476563.027344 86.414063-37.617187 87.996094-85.070312 1.582032-47.449219-34.765625-87.601563-82.140625-90.734375zm-269.855469-160.195313c23.035157-.011718 45.511719 7.105469 64.34375 20.378906-.992187.613282-1.929687 1.277344-2.898437 1.910157-.96875.632812-2.152344 1.382812-3.199219 2.113281-1.441406.992188-2.832031 2.039062-4.214844 3.078125-.953124.722656-1.921874 1.410156-2.847656 2.144531-1.511718 1.199219-2.96875 2.457032-4.433594 3.71875-.734374.640625-1.503906 1.25-2.230468 1.90625-2.132813 1.941406-4.21875 3.945313-6.25 6.007813-.101563.105469-.191406.214843-.289063.3125-1.90625 1.972656-3.753906 4-5.535156 6.078125-.632813.746094-1.214844 1.519531-1.839844 2.273437-1.199219 1.472657-2.398437 2.945313-3.542969 4.464844-.6875.910156-1.320312 1.847656-1.984374 2.773437-1.007813 1.417969-2.007813 2.832032-2.960938 4.28125-.65625 1.007813-1.277344 2.039063-1.910156 3.0625-.878906 1.425782-1.746094 2.851563-2.578125 4.304688-.605469 1.074219-1.183594 2.160156-1.757813 3.25-.800781 1.453125-1.527344 2.910156-2.242187 4.398438-.550781 1.121093-1.070313 2.257812-1.597657 3.402343-.671874 1.496094-1.320312 3-1.9375 4.511719-.472656 1.160156-.933593 2.328125-1.375 3.503906-.585937 1.542969-1.128906 3.109375-1.648437 4.6875-.398437 1.175782-.800781 2.34375-1.152344 3.535156-.496093 1.601563-.9375 3.265626-1.367187 4.910157-.3125 1.167969-.632813 2.335937-.90625 3.515625-.40625 1.734375-.75 3.496094-1.09375 5.246094-.214844 1.121093-.457032 2.222656-.648438 3.351562-.328125 1.960938-.574218 3.945312-.800781 5.929688-.113281.941406-.269531 1.886718-.367187 2.839843-.296876 2.941407-.519532 5.910157-.632813 8.902344-7.898437-1.867187-15.988281-2.804687-24.101563-2.792969-3.898437.015625-7.792968.25-11.664062.707032-1.257812.132812-2.488281.398437-3.746094.589843-2.574218.386719-5.144531.800781-7.679687 1.386719-1.449219.335938-2.863281.75-4.289063 1.140625-2.292968.632813-4.574218 1.304687-6.824218 2.089844-1.453126.503906-2.886719 1.0625-4.320313 1.597656-2.167969.867187-4.285156 1.792969-6.398437 2.800781-1.382813.664063-2.761719 1.335938-4.113282 2.066406-2.101562 1.117188-4.144531 2.34375-6.167968 3.605469-1.238282.800781-2.488282 1.519531-3.695313 2.351563-2.144531 1.464844-4.191406 3.066406-6.230469 4.691406-.96875.796875-1.976562 1.503906-2.929687 2.316406-2.746094 2.367188-5.363281 4.875-7.847657 7.515625-.167968.175781-.351562.328125-.511718.503907l-.078125.070312c-17.074219-34.714844-15.027344-75.78125 5.417969-108.621094 20.445312-32.84375 56.390624-52.808594 95.078124-52.8125zm264 320h-288c-48.601562 0-88-39.398437-88-88 0-48.597656 39.398438-88 88-88 10.035157-.035156 20 1.675782 29.453126 5.050782 2.570312.921874 5.4375.46875 7.597656-1.199219 2.160156-1.671875 3.320312-4.328125 3.074218-7.050781-.125-1.597657-.125-3.199219-.125-4.800782-.003906-8.449218.871094-16.875 2.613282-25.140625 6.394531-30.328125 24.375-56.960937 50.113281-74.226562 4.355469-2.957031 8.898437-5.628907 13.601563-8 37.203124-18.605469 81.390624-16.613281 116.773437 5.257812 35.378906 21.875 56.910156 60.511719 56.898437 102.109375-.019531 10.164063-1.28125 20.285156-3.761718 30.136719-.621094 2.472656-.023438 5.09375 1.605468 7.054687 1.628907 1.960938 4.097657 3.03125 6.640626 2.875 1.113281-.066406 2.304687-.066406 3.515624-.066406 39.761719 0 72 32.238282 72 72 0 39.765625-32.238281 72-72 72zm0 0" fill="#1e81ce"/></svg>