<svg id="Capa_1" enable-background="new 0 0 512 512" height="512" viewBox="0 0 512 512" width="512" xmlns="http://www.w3.org/2000/svg"><g><g><g><ellipse cx="322.52" cy="189.733" fill="#ffe07d" rx="82.833" ry="82.833" transform="matrix(.707 -.707 .707 .707 -39.698 283.628)"/><path d="m322.52 106.9c-3.904 0-7.74.29-11.5.813 40.301 5.601 71.333 40.177 71.333 82.021s-31.032 76.42-71.333 82.021c3.76.523 7.596.813 11.5.813 45.747 0 82.833-37.086 82.833-82.833s-37.086-82.835-82.833-82.835z" fill="#ffd064"/></g><path d="m198.011 322.267c23.801 0 42.897-20.421 41.18-44.563-1.41-19.817-17.108-36.027-36.872-38.05-2.782-.285-5.513-.289-8.171-.041-3.628.339-6.974-1.953-8.161-5.398-8.925-25.883-33.482-44.481-62.397-44.481-21.694 0-40.935 10.471-52.965 26.631-3.067 4.12-7.852 6.537-12.988 6.504-.104-.001-.209-.001-.314-.001-27.731 0-50.158 22.712-49.693 50.549.455 27.251 23.256 48.851 50.511 48.851h139.87z" fill="#ecf4ff"/><path d="m239.191 277.704c-1.41-19.817-17.108-36.027-36.872-38.05-2.782-.285-5.513-.289-8.171-.041-3.628.339-6.974-1.953-8.161-5.398-8.925-25.883-33.482-44.481-62.397-44.481-3.93 0-7.779.348-11.519 1.007 23.798 4.177 43.2 21.098 50.916 43.474 1.188 3.445 4.533 5.737 8.161 5.398 2.658-.248 5.389-.243 8.171.041 19.764 2.023 35.462 18.233 36.872 38.05 1.717 24.142-17.379 44.563-41.18 44.563h23c23.8 0 42.897-20.421 41.18-44.563z" fill="#ddeafb"/></g><g><path d="m322.52 280.066c49.811 0 90.334-40.523 90.334-90.333s-40.524-90.333-90.334-90.333c-17.643 0-34.738 5.089-49.436 14.716-3.465 2.269-4.435 6.919-2.165 10.384 2.272 3.466 6.919 4.432 10.384 2.165 12.249-8.023 26.502-12.265 41.218-12.265 41.539 0 75.334 33.794 75.334 75.333s-33.795 75.333-75.334 75.333-75.333-33.794-75.333-75.333c0-16.021 4.961-31.316 14.346-44.231 2.435-3.352 1.692-8.042-1.658-10.477-3.351-2.435-8.04-1.693-10.476 1.658-11.26 15.495-17.211 33.84-17.211 53.05-.003 49.81 40.521 90.333 90.331 90.333z"/><path d="m82.828 322.267c0-4.143-3.357-7.5-7.5-7.5h-18.005c-23.269 0-42.199-18.931-42.199-42.2s18.931-42.2 42.199-42.2c2.354 0 4.769.213 7.181.625.03.006.058.015.088.02 20.166 3.561 34.803 21.037 34.803 41.555 0 4.143 3.357 7.5 7.5 7.5s7.5-3.357 7.5-7.5c0-24.032-14.828-44.975-36.503-53.341 11.006-13.755 27.78-21.992 45.699-21.992 27.335 0 50.758 18.572 56.96 45.165.457 1.961 1.683 3.655 3.402 4.702 1.719 1.048 3.785 1.359 5.739.866 2.713-.686 5.512-1.033 8.318-1.033 18.63 0 33.787 15.157 33.787 33.787 0 18.773-15.157 34.046-33.787 34.046h-94.01c-4.143 0-7.5 3.357-7.5 7.5s3.357 7.5 7.5 7.5h94.011c26.901 0 48.787-22.002 48.787-49.046 0-26.901-21.886-48.787-48.787-48.787-1.6 0-3.198.078-4.787.234-4.771-14.214-13.6-26.242-25.001-34.935h38.077c4.143 0 7.5-3.357 7.5-7.5s-3.357-7.5-7.5-7.5h-66.267c-1.412 0-2.728.397-3.855 1.075-4.099-.701-8.303-1.075-12.587-1.075-24.896 0-48.033 12.649-61.551 33.333-1.581-.133-3.157-.2-4.717-.2-31.54 0-57.199 25.66-57.199 57.2s25.659 57.2 57.199 57.2h18.005c4.143.001 7.5-3.357 7.5-7.499z"/><path d="m106.9 397.6h-33.133c-4.143 0-7.5 3.357-7.5 7.5s3.357 7.5 7.5 7.5h33.133c4.143 0 7.5-3.357 7.5-7.5s-3.357-7.5-7.5-7.5z"/><path d="m454.8 397.6h-298.2c-4.143 0-7.5 3.357-7.5 7.5s3.357 7.5 7.5 7.5h298.2c4.143 0 7.5-3.357 7.5-7.5s-3.358-7.5-7.5-7.5z"/><path d="m454.8 463.866h-33.133c-4.143 0-7.5 3.357-7.5 7.5s3.357 7.5 7.5 7.5h33.133c4.143 0 7.5-3.357 7.5-7.5 0-4.142-3.358-7.5-7.5-7.5z"/><path d="m379.467 471.366c0-4.143-3.357-7.5-7.5-7.5h-298.2c-4.143 0-7.5 3.357-7.5 7.5s3.357 7.5 7.5 7.5h298.2c4.142 0 7.5-3.357 7.5-7.5z"/><path d="m39.253 430.733h-31.753c-4.143 0-7.5 3.357-7.5 7.5s3.357 7.5 7.5 7.5h31.753c4.143 0 7.5-3.357 7.5-7.5s-3.357-7.5-7.5-7.5z"/><path d="m504.5 430.733h-33.134c-4.143 0-7.5 3.357-7.5 7.5s3.357 7.5 7.5 7.5h33.134c4.143 0 7.5-3.357 7.5-7.5s-3.357-7.5-7.5-7.5z"/><path d="m81.453 438.233c0 4.143 3.357 7.5 7.5 7.5h332.714c4.143 0 7.5-3.357 7.5-7.5s-3.357-7.5-7.5-7.5h-332.714c-4.142 0-7.5 3.358-7.5 7.5z"/><path d="m39.253 497h-31.753c-4.143 0-7.5 3.357-7.5 7.5s3.357 7.5 7.5 7.5h31.753c4.143 0 7.5-3.357 7.5-7.5s-3.357-7.5-7.5-7.5z"/><path d="m504.5 497h-33.134c-4.143 0-7.5 3.357-7.5 7.5s3.357 7.5 7.5 7.5h33.134c4.143 0 7.5-3.357 7.5-7.5s-3.357-7.5-7.5-7.5z"/><path d="m421.667 497h-332.714c-4.143 0-7.5 3.357-7.5 7.5s3.357 7.5 7.5 7.5h332.714c4.143 0 7.5-3.357 7.5-7.5s-3.357-7.5-7.5-7.5z"/><path d="m322.267 81.267c4.143 0 7.5-3.357 7.5-7.5v-66.267c0-4.143-3.357-7.5-7.5-7.5s-7.5 3.357-7.5 7.5v66.267c0 4.142 3.357 7.5 7.5 7.5z"/><path d="m314.767 305.7v66.267c0 4.143 3.357 7.5 7.5 7.5s7.5-3.357 7.5-7.5v-66.267c0-4.143-3.357-7.5-7.5-7.5s-7.5 3.358-7.5 7.5z"/><path d="m430.733 189.733c0 4.143 3.357 7.5 7.5 7.5h66.267c4.143 0 7.5-3.357 7.5-7.5s-3.357-7.5-7.5-7.5h-66.267c-4.142 0-7.5 3.358-7.5 7.5z"/><path d="m404.268 115.232c1.919 0 3.839-.732 5.304-2.196l46.857-46.857c2.929-2.93 2.929-7.678 0-10.607-2.93-2.928-7.678-2.928-10.607 0l-46.857 46.857c-2.929 2.93-2.929 7.678 0 10.607 1.464 1.464 3.384 2.196 5.303 2.196z"/><path d="m409.571 266.431c-2.93-2.928-7.678-2.928-10.607 0-2.929 2.93-2.929 7.678 0 10.607l46.857 46.857c1.465 1.464 3.385 2.196 5.304 2.196s3.839-.732 5.304-2.196c2.929-2.93 2.929-7.678 0-10.607z"/><path d="m234.962 113.036c1.465 1.464 3.385 2.196 5.304 2.196s3.839-.732 5.304-2.196c2.929-2.93 2.929-7.678 0-10.607l-46.857-46.857c-2.93-2.928-7.678-2.928-10.607 0-2.929 2.93-2.929 7.678 0 10.607z"/><path d="m270.959 85.464c1.196 2.889 3.988 4.632 6.932 4.632.956 0 1.929-.185 2.867-.573 3.827-1.585 5.645-5.972 4.059-9.799l-12.679-30.611c-1.585-3.827-5.972-5.644-9.799-4.059s-5.645 5.972-4.059 9.799z"/><path d="m181.646 139.604 30.61 12.68c.938.39 1.91.573 2.867.573 2.943 0 5.735-1.743 6.932-4.632 1.586-3.827-.231-8.214-4.059-9.799l-30.61-12.68c-3.823-1.587-8.213.23-9.799 4.059-1.585 3.827.232 8.214 4.059 9.799z"/><path d="m270.959 294.003-12.679 30.61c-1.586 3.827.231 8.214 4.059 9.799.938.39 1.91.573 2.867.573 2.943 0 5.735-1.744 6.932-4.632l12.679-30.61c1.586-3.827-.231-8.214-4.059-9.799-3.824-1.587-8.213.233-9.799 4.059z"/><path d="m373.574 294.003c-1.585-3.827-5.972-5.645-9.799-4.059-3.827 1.585-5.645 5.972-4.059 9.799l12.68 30.61c1.196 2.889 3.988 4.632 6.932 4.632.956 0 1.929-.185 2.867-.573 3.827-1.585 5.645-5.972 4.059-9.799z"/><path d="m466.946 249.661c1.586-3.827-.231-8.214-4.059-9.799l-30.611-12.679c-3.828-1.59-8.214.231-9.799 4.059-1.586 3.827.232 8.214 4.059 9.799l30.611 12.679c.938.39 1.911.573 2.867.573 2.944 0 5.736-1.743 6.932-4.632z"/><path d="m426.536 138.426c-3.827 1.585-5.645 5.972-4.059 9.799 1.196 2.889 3.988 4.632 6.932 4.632.956 0 1.929-.184 2.867-.573l30.611-12.68c3.827-1.585 5.645-5.972 4.059-9.799s-5.972-5.644-9.799-4.059z"/><path d="m363.775 89.522c.939.39 1.91.573 2.867.573 2.943 0 5.735-1.744 6.932-4.632l12.68-30.611c1.586-3.827-.231-8.214-4.059-9.799-3.823-1.587-8.213.232-9.799 4.059l-12.68 30.611c-1.585 3.828.232 8.215 4.059 9.799z"/></g></g></svg>